<svg xmlns="http://www.w3.org/2000/svg" xmlns:xlink="http://www.w3.org/1999/xlink" version="1.1" x="0px" y="0px" viewBox="0 0 32 40" style="enable-background:new 0 0 32 32;" xml:space="preserve"><path d="M16,31C16,31,16,31,16,31c-0.4,0-0.8-0.3-0.9-0.6l-3.8-9.6l-9.6-3.8C1.3,16.8,1,16.4,1,16c0-0.4,0.2-0.8,0.6-0.9l28-14  C29.6,1.1,29.7,1,29.9,1c0,0,0,0,0,0l0,0c0.1,0,0.1,0,0.2,0c0.2,0,0.5,0.1,0.6,0.3c0,0,0,0,0,0c0,0,0,0,0,0c0,0,0,0,0,0c0,0,0,0,0,0  c0,0,0,0,0,0C30.9,1.5,31,1.7,31,1.9c0,0,0,0,0,0c0,0.1,0,0.1,0,0.2c0,0.1-0.1,0.2-0.1,0.3l-14,28C16.7,30.8,16.4,31,16,31z   M13.2,20.2l2.9,7.3L26.3,7.1L13.2,20.2z M4.4,15.9l7.3,2.9L24.9,5.7L4.4,15.9z"/><text x="0" y="47" fill="#000000" font-size="5px" font-weight="bold" font-family="'Helvetica Neue', Helvetica, Arial-Unicode, Arial, Sans-serif">Created by Graphik Designz</text><text x="0" y="52" fill="#000000" font-size="5px" font-weight="bold" font-family="'Helvetica Neue', Helvetica, Arial-Unicode, Arial, Sans-serif">from the Noun Project</text></svg>